<?xml version="1.0" standalone="no"?>
<!DOCTYPE svg PUBLIC "-//W3C//DTD SVG 20010904//EN"
 "http://www.w3.org/TR/2001/REC-SVG-20010904/DTD/svg10.dtd">
<svg version="1.0" xmlns="http://www.w3.org/2000/svg"
 width="640.000000pt" height="640.000000pt" viewBox="0 0 640.000000 640.000000"
 preserveAspectRatio="xMidYMid meet">
<metadata>
Created by potrace 1.11, written by Peter Selinger 2001-2013
</metadata>
<g transform="translate(0.000000,640.000000) scale(0.100000,-0.100000)"
fill="#000000" stroke="none">
<path d="M2327 5734 c-1 -2 -36 -6 -77 -9 -41 -3 -82 -7 -90 -10 -8 -2 -33 -6
-55 -10 -144 -20 -363 -91 -524 -168 -137 -65 -332 -191 -441 -286 -206 -178
-411 -447 -517 -680 -32 -69 -81 -191 -87 -216 -2 -5 -5 -17 -8 -25 -94 -275
-119 -642 -67 -955 10 -64 45 -213 59 -255 28 -85 66 -182 88 -228 l25 -53 71
6 c39 3 115 8 168 11 53 3 105 7 115 9 10 2 30 4 44 4 16 1 42 17 72 47 l46
47 -40 79 c-38 76 -92 212 -104 261 -44 184 -47 208 -50 382 -2 121 1 203 10
250 7 39 15 84 18 100 16 88 93 307 122 345 6 8 17 29 24 45 17 39 132 210
171 255 107 119 173 180 280 257 176 127 377 212 610 260 132 26 405 23 550
-7 30 -6 66 -14 79 -16 59 -12 214 -70 303 -114 236 -117 435 -293 586 -517
23 -34 42 -64 42 -67 0 -3 13 -27 28 -53 67 -113 141 -330 158 -458 3 -27 8
-53 11 -58 8 -14 12 -287 4 -292 -5 -2 -24 3 -42 13 -30 15 -65 17 -296 16
-145 -1 -263 0 -263 3 0 5 37 56 144 198 30 39 132 176 192 257 84 113 93 133
91 204 -2 47 -8 69 -29 102 -60 90 -177 121 -268 71 -37 -19 -77 -66 -214
-249 -93 -124 -172 -226 -177 -228 -11 -4 -116 74 -359 268 -189 151 -463 359
-546 413 -49 33 -107 42 -164 27 -36 -10 -469 -177 -555 -215 -16 -7 -88 -36
-160 -64 -138 -54 -163 -73 -196 -150 -58 -133 58 -288 209 -277 30 2 258 86
387 142 17 7 62 25 100 40 39 14 84 32 100 39 17 7 53 22 82 33 l51 20 91 -66
c50 -37 91 -70 91 -75 0 -4 -28 -37 -62 -74 -74 -78 -105 -111 -173 -185 -27
-29 -102 -110 -165 -178 -63 -68 -140 -151 -170 -183 -30 -33 -70 -76 -89 -96
-59 -63 -91 -113 -108 -170 -13 -45 -29 -69 -89 -131 -40 -41 -117 -121 -171
-178 l-98 -102 -61 -5 c-33 -2 -83 -7 -110 -9 -27 -3 -83 -8 -124 -11 -41 -4
-93 -9 -115 -11 -22 -2 -72 -6 -112 -9 -39 -3 -91 -8 -115 -10 -23 -2 -68 -7
-98 -9 -30 -3 -82 -8 -115 -11 -78 -8 -132 -33 -173 -79 -41 -47 -54 -77 -59
-140 -9 -100 42 -193 132 -236 57 -28 87 -28 325 -5 131 12 180 17 225 20 51
4 116 9 227 20 35 3 88 7 118 9 185 14 231 21 280 46 19 10 115 102 214 204
l179 186 31 -26 c17 -15 46 -39 63 -55 l33 -28 -36 -63 c-20 -35 -52 -92 -72
-128 -19 -36 -36 -67 -38 -69 -4 -5 -69 35 -123 76 l-44 33 -86 -87 c-106
-106 -152 -129 -276 -139 -49 -4 -100 -8 -112 -8 -13 0 -23 -4 -23 -9 0 -26
211 -197 355 -287 82 -51 111 -75 112 -91 3 -41 54 -129 96 -164 90 -77 231
-83 328 -14 27 19 79 23 105 6 5 -3 34 -8 64 -12 30 -4 57 -8 60 -10 10 -6
134 -17 245 -21 60 -2 139 -6 173 -8 35 -2 78 0 95 5 18 5 95 23 172 39 160
33 350 93 456 145 40 19 73 35 75 35 1 0 10 -22 18 -48 22 -66 67 -116 133
-148 l56 -28 396 -1 c425 -1 472 3 540 48 48 32 103 100 124 153 19 49 16 145
-5 195 -18 42 -75 101 -121 126 -26 15 -63 19 -215 21 -182 4 -183 4 -176 25
4 12 11 24 15 25 5 2 9 9 9 15 1 7 15 37 33 67 l33 54 295 2 c243 1 301 4 337
17 24 9 49 22 56 29 7 7 26 23 43 36 17 12 43 48 58 79 93 182 -13 368 -215
380 -59 4 -169 5 -188 2 -28 -5 -82 3 -82 11 0 6 11 28 24 49 14 21 23 41 21
43 -2 2 6 17 18 32 l23 28 300 2 c274 2 302 4 339 21 71 35 116 80 152 148 66
130 15 285 -115 349 -46 23 -52 23 -422 24 l-375 1 -1 90 c-1 94 -15 241 -28
303 -1 8 -6 33 -11 55 -40 208 -146 475 -264 665 -148 237 -359 455 -597 615
-185 125 -506 264 -669 290 -11 2 -31 6 -45 8 -141 30 -232 39 -408 41 -67 1
-124 1 -125 0z m448 -2024 l89 -65 -55 -7 c-125 -16 -221 -76 -259 -162 -53
-119 -13 -246 99 -317 57 -37 96 -47 194 -53 43 -2 80 -6 83 -8 2 -3 -48 -98
-111 -212 -63 -115 -115 -212 -115 -217 0 -5 -3 -9 -8 -9 -4 0 -20 -26 -35
-57 -16 -32 -70 -132 -121 -223 l-93 -165 -79 2 c-103 3 -124 5 -124 10 0 10
156 288 184 328 12 17 19 30 17 30 -3 0 2 11 11 25 48 74 56 208 19 294 -24
55 -64 96 -209 215 -56 46 -102 87 -102 92 0 5 15 24 33 42 17 19 77 83 132
142 55 59 128 138 161 174 117 126 143 156 161 188 10 19 22 29 28 25 6 -4 51
-36 100 -72z m1041 -623 c8 -7 -66 -138 -130 -232 -70 -103 -200 -243 -283
-306 -32 -24 -60 -47 -63 -50 -3 -3 -30 -21 -60 -40 -87 -56 -109 -69 -115
-69 -7 0 38 84 48 88 4 2 7 7 7 12 0 4 72 137 160 296 88 159 160 292 160 296
0 4 15 8 33 10 44 4 238 0 243 -5z"/>
<path d="M2886 4928 c-105 -14 -208 -82 -262 -174 -24 -41 -56 -165 -49 -187
2 -7 6 -32 9 -57 13 -98 96 -209 193 -256 242 -117 522 65 512 333 -4 96 -33
165 -99 233 -48 49 -113 92 -145 95 -5 1 -17 4 -25 7 -27 12 -74 14 -134 6z"/>
<path d="M5665 3648 c-49 -18 -112 -66 -133 -100 -63 -107 -781 -1566 -791
-1607 -25 -113 33 -220 137 -256 61 -20 100 -19 165 5 87 33 118 73 229 295
55 110 102 203 106 206 4 4 30 9 57 12 172 19 344 80 480 171 156 104 336 340
417 546 68 175 77 339 22 440 -77 142 -254 252 -444 276 -19 3 -46 7 -60 10
-51 12 -156 13 -185 2z m227 -512 c17 -12 16 -16 -6 -72 -29 -73 -40 -93 -92
-169 -38 -54 -124 -145 -139 -145 -3 0 2 15 12 33 9 17 18 34 18 37 0 3 7 16
15 30 17 30 103 203 105 210 0 3 11 24 23 48 24 44 36 50 64 28z"/>
<path d="M3488 1610 c-30 -6 -78 -43 -79 -62 0 -7 -2 -20 -4 -29 -1 -8 4 -23
11 -34 11 -15 28 -19 89 -19 41 -1 75 -5 75 -10 0 -4 -11 -29 -24 -55 -14 -25
-68 -140 -122 -256 -53 -115 -114 -248 -136 -294 -45 -97 -46 -130 -5 -149 24
-12 32 -11 63 5 44 22 36 8 180 318 64 138 136 293 160 345 l45 95 79 1 c86 0
107 11 136 66 13 25 13 31 -2 53 -9 14 -24 25 -33 26 -71 4 -413 3 -433 -1z"/>
<path d="M4113 1603 c-27 -5 -53 -39 -86 -113 -14 -30 -44 -95 -67 -145 -93
-199 -114 -243 -152 -325 -22 -47 -53 -114 -69 -150 -16 -36 -34 -73 -39 -82
-26 -45 1 -88 53 -88 50 0 70 21 125 135 29 58 52 107 52 109 0 3 24 55 54
118 120 254 226 487 226 497 0 18 -39 51 -57 50 -10 -1 -28 -4 -40 -6z"/>
<path d="M4725 1583 c-167 -28 -331 -117 -449 -243 -102 -109 -177 -264 -177
-365 0 -165 98 -268 269 -282 162 -13 379 83 526 234 244 249 245 563 3 643
-39 12 -133 19 -172 13z m130 -154 c53 -26 75 -59 82 -124 17 -161 -149 -369
-360 -451 -207 -81 -369 9 -332 186 31 149 165 298 339 375 102 45 197 50 271
14z"/>
<path d="M3008 1554 c-133 -52 -255 -173 -347 -346 -23 -43 -38 -78 -35 -78 4
0 2 -6 -4 -12 -16 -20 -40 -149 -36 -200 6 -87 61 -159 140 -186 52 -17 145
-8 207 21 66 30 143 98 149 131 14 70 -68 95 -128 38 -73 -69 -166 -66 -200 6
-67 142 172 502 332 502 20 0 38 -9 53 -26 17 -19 29 -24 52 -20 110 17 124
133 22 178 -55 24 -130 21 -205 -8z"/>
<path d="M5740 1567 c-26 -12 -40 -38 -121 -212 -26 -55 -70 -149 -98 -208
-28 -60 -51 -113 -51 -118 0 -6 -4 -8 -8 -5 -5 3 -10 27 -10 53 -1 26 -4 57
-6 68 -5 24 -14 115 -21 210 -16 218 -15 215 -75 215 -31 0 -44 -7 -69 -35
-17 -20 -31 -40 -31 -44 0 -5 -31 -75 -70 -156 -38 -81 -70 -148 -70 -150 0
-2 -26 -59 -59 -127 -120 -251 -143 -304 -148 -335 -5 -27 -1 -33 23 -46 63
-32 103 -2 160 121 25 53 64 138 87 187 23 50 56 119 74 155 29 59 32 62 33
35 4 -67 17 -199 25 -246 3 -21 7 -48 20 -176 8 -69 47 -97 105 -73 37 15 45
28 115 181 32 68 74 158 93 199 20 41 36 77 37 80 0 3 16 37 34 75 49 103 101
214 123 264 18 44 16 79 -6 93 -17 12 -58 9 -86 -5z"/>
<path d="M2388 1536 c-18 -18 -41 -44 -51 -57 -9 -13 -72 -99 -140 -190 -153
-208 -136 -185 -272 -369 -115 -155 -132 -193 -102 -218 18 -15 59 -21 84 -11
12 4 69 71 127 148 l105 139 88 -1 88 -2 -2 -60 c-1 -33 -2 -86 -4 -117 -1
-35 3 -63 11 -73 21 -25 76 -19 110 13 32 29 33 35 45 202 2 41 7 98 9 125 3
28 7 86 11 130 3 44 8 100 10 125 16 158 16 203 0 226 -24 37 -75 33 -117 -10z
m-42 -295 c-3 -4 -6 -31 -7 -60 -1 -28 -5 -51 -8 -52 -18 -3 -81 -3 -81 0 0 9
86 120 93 121 5 0 6 -4 3 -9z"/>
<path d="M940 1465 c-43 -46 -19 -75 62 -75 32 0 58 -4 58 -8 0 -9 -94 -270
-115 -317 -11 -25 -25 -64 -30 -85 -1 -3 -4 -12 -8 -20 -39 -98 -49 -141 -37
-155 17 -20 53 -19 72 3 15 16 66 150 173 450 l47 132 64 0 c57 0 65 3 80 25
10 15 14 34 10 49 l-6 24 -175 -1 c-165 0 -176 -1 -195 -22z"/>
<path d="M1624 1479 c-162 -21 -315 -132 -388 -281 -69 -138 -58 -251 32 -328
186 -158 561 36 628 325 8 37 6 100 -4 126 -6 15 -9 29 -6 31 2 3 -12 23 -31
46 -39 45 -82 70 -135 78 -19 3 -37 7 -40 8 -3 1 -28 -1 -56 -5z m99 -114 c54
-25 72 -59 72 -135 0 -80 -34 -147 -107 -216 -167 -156 -401 -126 -392 51 5
95 49 171 139 241 100 78 204 99 288 59z"/>
<path d="M238 1470 c-9 -6 -24 -34 -34 -63 -9 -28 -22 -58 -28 -66 -6 -8 -10
-17 -10 -20 2 -7 8 11 -67 -196 -108 -300 -108 -298 -68 -310 45 -15 64 13
120 175 16 47 33 94 38 105 34 75 122 337 119 356 -3 27 -40 36 -70 19z"/>
<path d="M799 1470 c-9 -5 -22 -24 -29 -42 -6 -18 -18 -49 -26 -68 -7 -19 -34
-93 -60 -165 -25 -71 -49 -136 -53 -143 -4 -8 -12 11 -19 45 -6 32 -13 69 -16
83 -3 14 -10 50 -16 80 -6 30 -12 66 -15 80 -3 13 -7 42 -11 65 -3 22 -10 46
-16 53 -15 18 -52 15 -70 -5 -17 -19 -228 -591 -228 -616 0 -20 21 -35 44 -31
22 3 56 34 60 55 2 8 7 25 13 39 5 14 34 91 63 173 29 81 55 145 57 143 3 -2
11 -37 19 -78 12 -58 53 -243 59 -268 15 -55 19 -60 40 -60 13 0 32 8 43 18
24 20 235 593 230 626 -3 23 -42 33 -69 16z"/>
</g>
</svg>
